<svg
    xmlns="http://www.w3.org/2000/svg"
    viewBox="0 0 100 100"
    id="vector">
    <path
        id="path"
        d="M 71.997 51.999 L 67.999 51.999 C 66.894 51.999 65.999 51.104 65.999 50 C 65.999 48.896 66.894 48 67.999 48 L 71.997 48 C 73.102 48 73.997 48.896 73.997 50 C 73.997 51.104 73.103 51.999 71.997 51.999 Z M 64.142 38.688 C 63.361 39.469 62.093 39.469 61.314 38.688 C 60.533 37.907 60.533 36.641 61.314 35.86 L 64.142 33.032 C 64.921 32.251 66.189 32.251 66.97 33.032 C 67.749 33.813 67.749 35.079 66.97 35.86 L 64.142 38.688 Z M 50.001 61.998 C 43.374 61.998 38.001 56.626 38.001 50 C 38.001 43.373 43.373 38.001 50.001 38.001 C 56.628 38.001 61.999 43.373 61.999 50 C 61.999 56.626 56.628 61.998 50.001 61.998 Z M 50.001 42.001 C 45.583 42.001 42.001 45.582 42.001 50 C 42.001 54.417 45.584 57.999 50.001 57.999 C 54.418 57.999 57.999 54.417 57.999 50 C 57.999 45.582 54.419 42.001 50.001 42.001 Z M 50.001 34.002 C 48.896 34.002 48.001 33.106 48.001 32.002 L 48.001 28.003 C 48.001 26.899 48.896 26.003 50.001 26.003 C 51.105 26.003 52.001 26.899 52.001 28.003 L 52.001 32.002 C 52.001 33.106 51.104 34.002 50.001 34.002 Z M 35.86 38.688 L 33.032 35.86 C 32.251 35.079 32.251 33.813 33.032 33.032 C 33.813 32.251 35.079 32.251 35.86 33.032 L 38.688 35.86 C 39.469 36.641 39.469 37.907 38.688 38.688 C 37.907 39.469 36.641 39.469 35.86 38.688 Z M 34.002 50 C 34.002 51.104 33.106 51.999 32.002 51.999 L 28.002 51.999 C 26.898 51.999 26.003 51.104 26.003 50 C 26.003 48.896 26.899 48 28.002 48 L 32.002 48 C 33.107 48 34.002 48.896 34.002 50 Z M 35.86 61.312 C 36.641 60.532 37.907 60.532 38.688 61.312 C 39.469 62.093 39.469 63.36 38.688 64.14 L 35.86 66.968 C 35.079 67.749 33.813 67.749 33.032 66.968 C 32.251 66.188 32.251 64.921 33.032 64.14 L 35.86 61.312 Z M 50.001 65.998 C 51.105 65.998 52.001 66.893 52.001 67.997 L 52.001 71.997 C 52.001 73.101 51.105 73.997 50.001 73.997 C 48.896 73.997 48.001 73.101 48.001 71.997 L 48.001 67.997 C 48.001 66.893 48.896 65.998 50.001 65.998 Z M 64.142 61.312 L 66.97 64.14 C 67.749 64.921 67.749 66.188 66.97 66.968 C 66.189 67.749 64.921 67.749 64.142 66.968 L 61.314 64.14 C 60.533 63.36 60.533 62.093 61.314 61.312 C 62.093 60.531 63.36 60.531 64.142 61.312 Z"
        fill="#699faf"
        fill-rule="evenodd"/>
</svg>
