<svg
    xmlns="http://www.w3.org/2000/svg"
    viewBox="0 0 100 100"
    id="vector">
    <path
        id="path"
        d="M 79.941 43.641 L 75.941 43.641 C 74.837 43.641 73.941 42.746 73.941 41.641 C 73.941 40.537 74.837 39.643 75.941 39.643 L 79.941 39.643 C 81.045 39.643 81.941 40.538 81.941 41.641 C 81.941 42.746 81.045 43.641 79.941 43.641 Z M 72.084 30.329 C 71.303 31.11 70.037 31.11 69.256 30.329 C 68.475 29.549 68.475 28.282 69.256 27.502 L 72.084 24.674 C 72.865 23.893 74.131 23.893 74.912 24.674 C 75.693 25.454 75.693 26.721 74.912 27.502 L 72.084 30.329 Z M 69.137 45.936 L 69.137 45.936 C 70.886 48.022 71.943 50.706 71.943 53.641 C 71.943 60.266 66.571 65.639 59.944 65.639 C 57.169 65.639 47.143 65.639 43.946 65.639 C 35.111 65.639 27.948 58.477 27.948 49.641 C 27.948 40.805 35.111 33.643 43.946 33.643 C 45.518 33.643 47.036 33.875 48.469 34.297 C 50.664 31.47 54.087 29.643 57.944 29.643 C 64.571 29.643 69.943 35.016 69.943 41.641 C 69.942 43.156 69.649 44.602 69.137 45.936 Z M 31.947 49.641 C 31.947 56.268 37.318 61.639 43.945 61.639 C 47.561 61.639 56.924 61.639 59.943 61.639 C 64.361 61.639 67.942 58.057 67.942 53.641 C 67.942 49.223 64.361 45.641 59.943 45.641 C 58.343 45.641 56.86 46.123 55.61 46.932 C 54.379 41.616 49.636 37.643 43.945 37.643 C 37.318 37.643 31.947 43.014 31.947 49.641 Z M 57.943 33.643 C 55.731 33.643 53.728 34.541 52.281 35.992 C 54.621 37.428 56.566 39.445 57.91 41.846 C 58.574 41.733 59.247 41.641 59.943 41.641 C 62.068 41.641 64.062 42.2 65.793 43.168 L 65.793 43.168 C 65.889 42.674 65.943 42.164 65.943 41.641 C 65.943 37.225 62.361 33.643 57.943 33.643 Z M 57.943 25.643 C 56.839 25.643 55.944 24.748 55.944 23.644 L 55.944 19.645 C 55.944 18.54 56.84 17.645 57.943 17.645 C 59.048 17.645 59.943 18.54 59.943 19.645 L 59.943 23.644 C 59.943 24.749 59.049 25.643 57.943 25.643 Z M 43.803 30.329 L 40.976 27.502 C 40.195 26.721 40.195 25.454 40.976 24.674 C 41.756 23.893 43.023 23.893 43.803 24.674 L 46.631 27.502 C 47.412 28.282 47.412 29.549 46.631 30.329 C 45.851 31.11 44.584 31.11 43.803 30.329 Z"
        fill="#000000"
        fill-rule="evenodd"/>
</svg>
