<svg
    xmlns="http://www.w3.org/2000/svg"
    viewBox="0 0 100 100"
    id="vector">
    <path
        id="path"
        d="M 69.763 46.758 L 69.763 46.758 C 71.131 48.707 71.942 51.076 71.942 53.641 C 71.942 60.266 66.571 65.639 59.944 65.639 C 57.169 65.639 47.143 65.639 43.946 65.639 C 35.11 65.639 27.948 58.477 27.948 49.641 C 27.948 40.805 35.11 33.643 43.946 33.643 C 45.948 33.643 47.86 34.018 49.626 34.69 L 49.626 34.69 C 51.261 30.008 55.704 26.643 60.944 26.643 C 61.699 26.643 62.435 26.721 63.151 26.855 C 63.02 27.43 62.944 28.028 62.944 28.643 C 62.944 33.061 66.525 36.642 70.942 36.642 C 71.558 36.642 72.155 36.566 72.731 36.434 C 72.864 37.151 72.942 37.887 72.942 38.642 C 72.941 41.775 71.73 44.621 69.763 46.758 Z M 31.947 49.641 C 31.947 56.268 37.318 61.639 43.945 61.639 C 47.561 61.639 56.924 61.639 59.943 61.639 C 64.361 61.639 67.942 58.057 67.942 53.641 C 67.942 49.223 64.361 45.641 59.943 45.641 C 58.343 45.641 56.86 46.123 55.609 46.932 C 54.378 41.616 49.636 37.642 43.945 37.642 C 37.318 37.642 31.947 43.014 31.947 49.641 Z M 51.496 35.545 C 51.497 35.545 51.498 35.545 51.498 35.545 C 51.498 35.545 51.497 35.545 51.496 35.545 Z M 59.155 30.85 C 56.255 31.514 53.98 33.76 53.23 36.625 L 53.23 36.625 C 55.148 37.997 56.753 39.777 57.91 41.845 C 58.574 41.732 59.247 41.64 59.943 41.64 C 62.561 41.64 64.976 42.49 66.948 43.911 L 66.948 43.911 C 67.806 42.932 68.433 41.743 68.734 40.429 C 63.881 39.525 60.059 35.706 59.155 30.85 Z"
        fill="#699faf"
        fill-rule="evenodd"/>
</svg>
