<svg
    xmlns="http://www.w3.org/2000/svg"
    viewBox="0 0 100 100"
    id="vector">
    <path
        id="path"
        d="M 72.997 71.639 C 71.893 71.639 70.998 70.744 70.998 69.639 C 70.998 68.535 71.893 67.639 72.997 67.639 C 74.101 67.639 74.997 68.535 74.997 69.639 C 74.997 70.744 74.102 71.639 72.997 71.639 Z M 63.998 64.941 L 63.998 60.56 C 66.387 59.177 67.998 56.599 67.998 53.64 C 67.998 49.223 64.417 45.641 59.999 45.641 C 58.398 45.641 56.916 46.121 55.665 46.932 C 54.434 41.615 49.692 37.642 44.001 37.642 C 37.374 37.642 32.002 43.014 32.002 49.64 C 32.002 53.19 33.553 56.368 36.002 58.565 L 36.002 63.481 C 31.225 60.713 28.003 55.559 28.003 49.64 C 28.003 40.805 35.165 33.643 44.001 33.643 C 50.005 33.643 55.23 36.954 57.966 41.846 C 58.63 41.733 59.303 41.641 59.999 41.641 C 66.625 41.641 71.997 47.013 71.997 53.64 C 71.997 58.863 68.655 63.293 63.998 64.941 Z M 31.003 72.639 C 32.107 72.639 33.002 73.534 33.002 74.639 C 33.002 75.743 32.107 76.639 31.003 76.639 C 29.899 76.639 29.003 75.743 29.003 74.639 C 29.003 73.533 29.898 72.639 31.003 72.639 Z M 41.001 55.641 C 41.001 54.537 40.897 53.641 42.001 53.641 C 43.105 53.641 43.001 54.537 43.001 55.641 L 43.001 79.639 L 41.001 79.639 L 41.001 79.639 L 41.001 79.639 C 41.001 77.43 39.211 75.639 37.002 75.639 L 37.002 73.639 C 38.545 73.639 39.939 74.239 41.001 75.196 L 41.001 55.641 Z M 50 69.639 C 48.896 69.639 49 68.744 49 67.639 L 49 59.641 C 49 58.536 48.896 57.641 50 57.641 C 51.104 57.641 51 58.536 51 59.641 L 51 67.639 C 51 68.744 51.104 69.639 50 69.639 Z M 50 73.639 C 51.104 73.639 52 74.534 52 75.639 C 52 76.743 51.104 77.639 50 77.639 C 48.896 77.639 48 76.743 48 75.639 C 48 74.533 48.896 73.639 50 73.639 Z M 57.999 53.641 C 59.103 53.641 58.999 54.537 58.999 55.641 L 58.999 73.657 C 60.822 71.223 63.722 69.639 66.998 69.639 L 66.998 71.639 C 62.58 71.639 58.999 75.221 58.999 79.639 L 56.999 79.639 C 56.999 79.366 57.019 79.098 57.04 78.832 C 56.986 78.498 56.999 78.088 56.999 77.639 L 56.999 55.641 C 56.999 54.537 56.895 53.641 57.999 53.641 Z"
        fill="#000000"
        fill-rule="evenodd"/>
</svg>
