<svg
    xmlns="http://www.w3.org/2000/svg"
    viewBox="0 0 100 100"
    id="vector">
    <path
        id="path"
        d="M 65.999 52 L 65.999 52 L 62.999 52 C 61.894 52 60.999 51.105 60.999 50.001 C 60.999 48.897 61.894 48.001 62.999 48.001 L 65.999 48.001 C 67.103 48.001 67.999 47.105 67.999 46.002 C 67.999 44.897 67.103 44.002 65.999 44.002 C 64.894 44.002 63.999 43.106 63.999 42.002 C 63.999 40.898 64.894 40.002 65.999 40.002 C 66.136 40.002 66.27 40.016 66.401 40.043 C 69.522 40.254 71.997 42.826 71.997 46.002 C 71.997 49.314 69.312 52 65.999 52 Z M 55.999 48.001 L 53.999 48.001 L 47.001 48.001 L 34.002 48.001 C 32.898 48.001 32.003 48.897 32.003 50.001 C 32.003 51.105 32.898 52 34.002 52 L 36.002 52 L 40.001 52 L 43.001 52 L 47.001 52 L 50.001 52 L 53.999 52 L 55.999 52 C 59.313 52 61.999 54.687 61.999 58 C 61.999 61.176 59.524 63.748 56.403 63.959 C 56.272 63.986 56.138 64 55.999 64 C 54.895 64 53.999 63.104 53.999 62 C 53.999 60.895 54.895 60 55.999 60 C 57.104 60 57.999 59.104 57.999 58 C 57.999 56.896 57.104 56 55.999 56 L 53.999 56 L 50.001 56 L 47.001 56 L 43.001 56 L 40.001 56 L 36.002 56 L 34.002 56 C 30.689 56 28.003 53.314 28.003 50.001 C 28.003 46.826 30.478 44.254 33.599 44.042 C 33.73 44.016 33.865 44.002 34.002 44.002 L 34.002 44.002 L 47.001 44.002 L 53.999 44.002 L 55.999 44.002 C 57.104 44.002 57.999 43.106 57.999 42.002 C 57.999 40.898 57.104 40.002 55.999 40.002 C 54.895 40.002 53.999 39.107 53.999 38.002 C 53.999 36.898 54.895 36.002 55.999 36.002 C 56.138 36.002 56.272 36.017 56.403 36.043 C 59.524 36.254 61.999 38.826 61.999 42.002 C 61.999 45.314 59.313 48.001 55.999 48.001 Z"
        fill="#000000"
        fill-rule="evenodd"/>
</svg>
